<svg width="11" height="18" viewBox="0 0 11 18" fill="none" xmlns="http://www.w3.org/2000/svg">
<path d="M9.99631 1.01542C9.89305 0.9119 9.77038 0.829767 9.63533 0.773728C9.50028 0.717689 9.3555 0.688843 9.20929 0.688843C9.06307 0.688843 8.91829 0.717689 8.78324 0.773728C8.64819 0.829767 8.52553 0.9119 8.42227 1.01542L1.03228 8.4054C0.949844 8.48767 0.884439 8.5854 0.839813 8.69298C0.795187 8.80056 0.772217 8.91588 0.772217 9.03235C0.772217 9.14882 0.795187 9.26414 0.839813 9.37172C0.884439 9.4793 0.949844 9.57703 1.03228 9.6593L8.42227 17.0493C8.85802 17.485 9.56056 17.485 9.99631 17.0493C10.4321 16.6135 10.4321 15.911 9.99631 15.4752L3.55786 9.0279L10.0052 2.58057C10.4321 2.15371 10.4321 1.44228 9.99631 1.01542Z" fill="#A0A0A0" stroke="#A0A0A0" stroke-width="0.2"/>
</svg>
