<svg width="11" height="18" viewBox="0 0 11 18" fill="none" xmlns="http://www.w3.org/2000/svg">
<path d="M10.1045 1.01539C10.0012 0.911869 9.87853 0.829737 9.74348 0.773697C9.60843 0.717658 9.46366 0.688812 9.31744 0.688812C9.17122 0.688812 9.02645 0.717658 8.8914 0.773697C8.75635 0.829737 8.63368 0.911869 8.53042 1.01539L1.14044 8.40537C1.058 8.48764 0.992593 8.58536 0.947967 8.69294C0.903342 8.80052 0.880371 8.91585 0.880371 9.03232C0.880371 9.14879 0.903342 9.26411 0.947967 9.37169C0.992593 9.47927 1.058 9.57699 1.14044 9.65927L8.53042 17.0492C8.96617 17.485 9.66871 17.485 10.1045 17.0492C10.5402 16.6135 10.5402 15.911 10.1045 15.4752L3.66602 9.02787L10.1134 2.58054C10.5402 2.15368 10.5402 1.44225 10.1045 1.01539Z" fill="#1E232C" stroke="#1E232C" stroke-width="0.2"/>
</svg>
