<svg width="14" height="16" viewBox="0 0 14 16" fill="none" xmlns="http://www.w3.org/2000/svg">
<path d="M1.64111 14.75V2.75C1.64111 2.35218 1.79915 1.97064 2.08045 1.68934C2.36176 1.40804 2.74329 1.25 3.14111 1.25H10.6411C11.0389 1.25 11.4205 1.40804 11.7018 1.68934C11.9831 1.97064 12.1411 2.35218 12.1411 2.75V14.75L7.70261 11.8962C7.46059 11.7406 7.17889 11.6578 6.89111 11.6578C6.60334 11.6578 6.32164 11.7406 6.07961 11.8962L1.64111 14.75Z" fill="white" fill-opacity="0.6"/>
<path d="M1.14111 14.75C1.14111 14.9329 1.24099 15.1012 1.40153 15.1889C1.56208 15.2765 1.75767 15.2695 1.91152 15.1706L6.35002 12.3168L6.35011 12.3168C6.51146 12.213 6.69926 12.1578 6.89111 12.1578C7.08296 12.1578 7.27076 12.213 7.43211 12.3168L7.43221 12.3168L11.8707 15.1706C12.0246 15.2695 12.2201 15.2765 12.3807 15.1889C12.5412 15.1012 12.6411 14.9329 12.6411 14.75V2.75C12.6411 2.21957 12.4304 1.71086 12.0553 1.33579C11.6803 0.960714 11.1715 0.75 10.6411 0.75H3.14111C2.61068 0.75 2.10197 0.960714 1.7269 1.33579C1.35183 1.71086 1.14111 2.21957 1.14111 2.75V14.75Z" stroke="white" stroke-opacity="0.6" stroke-linecap="round" stroke-linejoin="round"/>
</svg>
