<svg width="10" height="13" viewBox="0 0 10 13" fill="none" xmlns="http://www.w3.org/2000/svg">
<path d="M1.31262 1.07162V11.3091L4.18418 9.01131C4.43352 8.81186 4.74332 8.70319 5.06262 8.70319C5.38192 8.70319 5.69172 8.81186 5.94106 9.01131L8.81262 11.3082V1.07162H1.31262ZM0.843872 0.134125H9.28137C9.40569 0.134125 9.52492 0.183511 9.61283 0.271418C9.70074 0.359326 9.75012 0.478555 9.75012 0.602875V12.2841C9.75 12.3723 9.72499 12.4587 9.67797 12.5333C9.63095 12.608 9.56383 12.6678 9.48432 12.706C9.40481 12.7442 9.31614 12.7592 9.22849 12.7492C9.14085 12.7393 9.0578 12.7048 8.98887 12.6497L5.35512 9.7435C5.27206 9.67717 5.16892 9.64104 5.06262 9.64104C4.95633 9.64104 4.85319 9.67717 4.77012 9.7435L1.13637 12.6497C1.06745 12.7048 0.984391 12.7393 0.896749 12.7492C0.809107 12.7592 0.720437 12.7442 0.640927 12.706C0.561418 12.6678 0.494297 12.608 0.447277 12.5333C0.400257 12.4587 0.375248 12.3723 0.375122 12.2841V0.602875C0.375122 0.478555 0.424508 0.359326 0.512416 0.271418C0.600324 0.183511 0.719552 0.134125 0.843872 0.134125Z" fill="#060606"/>
</svg>
