<svg width="12" height="16" viewBox="0 0 12 16" fill="none" xmlns="http://www.w3.org/2000/svg">
<path d="M0.50415 2.4714C0.50415 1.98041 0.699195 1.50953 1.04638 1.16234C1.39356 0.815162 1.86444 0.620117 2.35543 0.620117L9.76055 0.620117C10.2515 0.620117 10.7224 0.815162 11.0696 1.16234C11.4168 1.50953 11.6118 1.98041 11.6118 2.4714V14.9675C11.6118 15.0513 11.589 15.1334 11.546 15.2052C11.503 15.277 11.4413 15.3358 11.3675 15.3753C11.2937 15.4148 11.2105 15.4336 11.1269 15.4296C11.0433 15.4256 10.9623 15.399 10.8926 15.3526L6.05799 12.7469L1.22337 15.3526C1.15368 15.399 1.07271 15.4256 0.989085 15.4296C0.905464 15.4336 0.822323 15.4148 0.748519 15.3753C0.674714 15.3358 0.613009 15.277 0.569976 15.2052C0.526943 15.1334 0.504194 15.0513 0.50415 14.9675V2.4714ZM2.35543 1.54576C2.10994 1.54576 1.8745 1.64328 1.7009 1.81687C1.52731 1.99046 1.42979 2.2259 1.42979 2.4714V14.103L5.80159 11.8056C5.87755 11.755 5.96675 11.728 6.05799 11.728C6.14923 11.728 6.23843 11.755 6.31439 11.8056L10.6862 14.103V2.4714C10.6862 2.2259 10.5887 1.99046 10.4151 1.81687C10.2415 1.64328 10.006 1.54576 9.76055 1.54576H2.35543Z" fill="#536471"/>
</svg>
