<svg width="10" height="10" viewBox="0 0 19 19" fill="none" xmlns="http://www.w3.org/2000/svg">
<path d="M15.6556 4.22755H3.20729C2.22514 4.22755 1.42896 5.02373 1.42896 6.00588V15.7867C1.42896 16.7689 2.22514 17.565 3.20729 17.565H15.6556C16.6378 17.565 17.434 16.7689 17.434 15.7867V6.00588C17.434 5.02373 16.6378 4.22755 15.6556 4.22755Z" stroke="#6A707C" stroke-width="2"/>
<path d="M1.42896 7.78421C1.42896 6.10724 1.42896 5.26965 1.95001 4.7486C2.47106 4.22755 3.30865 4.22755 4.98562 4.22755H13.8773C15.5543 4.22755 16.3919 4.22755 16.9129 4.7486C17.434 5.26965 17.434 6.10724 17.434 7.78421H1.42896Z" fill="#6A707C"/>
<path d="M4.9856 1.56005V4.22755M13.8773 1.56005V4.22755" stroke="#6A707C" stroke-width="2" stroke-linecap="round"/>
</svg>
