<svg width="16" height="22" viewBox="0 0 16 22" fill="none" xmlns="http://www.w3.org/2000/svg">
<path d="M3.05702 1.41805L4.22402 1.06705C4.86331 0.874278 5.5509 0.920685 6.15849 1.19761C6.76608 1.47454 7.25216 1.96308 7.52602 2.57205L8.42802 4.57805C8.66348 5.10186 8.72905 5.68623 8.61553 6.24919C8.502 6.81215 8.21508 7.32544 7.79502 7.71705L6.30002 9.11005C6.25635 9.15075 6.22868 9.20573 6.22202 9.26505C6.17802 9.66206 6.44702 10.4351 7.06802 11.5101C7.51802 12.2911 7.92702 12.8401 8.27402 13.1471C8.51702 13.3621 8.65002 13.4081 8.70702 13.3921L10.717 12.7771C11.2659 12.6092 11.8536 12.6172 12.3977 12.8001C12.9418 12.9831 13.415 13.3317 13.751 13.7971L15.031 15.5731C15.4207 16.113 15.6012 16.776 15.539 17.439C15.4769 18.102 15.1763 18.7199 14.693 19.1781L13.806 20.0181C13.3358 20.4634 12.7582 20.7793 12.1296 20.9351C11.501 21.0909 10.8428 21.0812 10.219 20.9071C7.46502 20.1381 4.99602 17.8141 2.78402 13.9831C0.570019 10.1471 -0.207981 6.84305 0.510019 4.07005C0.671194 3.44639 0.990304 2.87476 1.43659 2.41025C1.88288 1.94575 2.4403 1.60404 3.05702 1.41805ZM3.49102 2.85505C3.12091 2.96636 2.78571 3.17113 2.51772 3.44962C2.24974 3.72811 2.05801 4.07094 1.96102 4.44505C1.35902 6.77705 2.04802 9.70605 4.08402 13.2331C6.11802 16.7551 8.30702 18.8161 10.624 19.4631C10.9983 19.5674 11.3932 19.5731 11.7704 19.4795C12.1475 19.386 12.494 19.1963 12.776 18.9291L13.662 18.0891C13.8818 17.8808 14.0186 17.5999 14.0469 17.2985C14.0752 16.997 13.9932 16.6956 13.816 16.4501L12.536 14.6751C12.3833 14.4633 12.168 14.3046 11.9205 14.2214C11.673 14.1382 11.4057 14.1346 11.156 14.2111L9.14102 14.8281C7.97102 15.1761 6.91002 14.2351 5.77002 12.2601C5.00002 10.9301 4.64202 9.90005 4.73202 9.09905C4.77802 8.68305 4.97202 8.29905 5.27702 8.01305L6.77202 6.62005C6.96287 6.44195 7.09318 6.20856 7.14465 5.95264C7.19612 5.69671 7.16618 5.4311 7.05902 5.19305L6.15802 3.18705C6.03352 2.91024 5.81255 2.68819 5.53636 2.56233C5.26016 2.43647 4.94761 2.4154 4.65702 2.50305L3.49102 2.85505Z" fill="black"/>
</svg>
