<svg width="16" height="22" viewBox="0 0 16 22" fill="none" xmlns="http://www.w3.org/2000/svg">
<path d="M2.94813 1.41805L4.11513 1.06705C4.75442 0.874278 5.44201 0.920685 6.0496 1.19761C6.65719 1.47454 7.14327 1.96308 7.41713 2.57205L8.31913 4.57805C8.5546 5.10186 8.62017 5.68623 8.50664 6.24919C8.39312 6.81215 8.1062 7.32544 7.68613 7.71705L6.19113 9.11005C6.14746 9.15075 6.11979 9.20573 6.11313 9.26505C6.06913 9.66206 6.33813 10.4351 6.95913 11.5101C7.40913 12.2911 7.81813 12.8401 8.16513 13.1471C8.40813 13.3621 8.54113 13.4081 8.59813 13.3921L10.6081 12.7771C11.157 12.6092 11.7447 12.6172 12.2888 12.8001C12.8329 12.9831 13.3061 13.3317 13.6421 13.7971L14.9221 15.5731C15.3118 16.113 15.4923 16.776 15.4302 17.439C15.368 18.102 15.0674 18.7199 14.5841 19.1781L13.6971 20.0181C13.2269 20.4634 12.6494 20.7793 12.0207 20.9351C11.3921 21.0909 10.7339 21.0812 10.1101 20.9071C7.35613 20.1381 4.88713 17.8141 2.67513 13.9831C0.461132 10.1471 -0.316868 6.84305 0.401132 4.07005C0.562308 3.44639 0.881418 2.87476 1.32771 2.41025C1.77399 1.94575 2.33141 1.60404 2.94813 1.41805ZM3.38213 2.85505C3.01202 2.96636 2.67682 3.17113 2.40884 3.44962C2.14085 3.72811 1.94913 4.07094 1.85213 4.44505C1.25013 6.77705 1.93913 9.70605 3.97513 13.2331C6.00913 16.7551 8.19813 18.8161 10.5151 19.4631C10.8894 19.5674 11.2843 19.5731 11.6615 19.4795C12.0386 19.386 12.3851 19.1963 12.6671 18.9291L13.5531 18.0891C13.7729 17.8808 13.9097 17.5999 13.938 17.2985C13.9664 16.997 13.8843 16.6956 13.7071 16.4501L12.4271 14.6751C12.2744 14.4633 12.0592 14.3046 11.8117 14.2214C11.5642 14.1382 11.2968 14.1346 11.0471 14.2111L9.03213 14.8281C7.86213 15.1761 6.80113 14.2351 5.66113 12.2601C4.89113 10.9301 4.53313 9.90005 4.62313 9.09905C4.66913 8.68305 4.86313 8.29905 5.16813 8.01305L6.66313 6.62005C6.85399 6.44195 6.98429 6.20856 7.03576 5.95264C7.08723 5.69671 7.05729 5.4311 6.95013 5.19305L6.04913 3.18705C5.92463 2.91024 5.70367 2.68819 5.42747 2.56233C5.15127 2.43647 4.83872 2.4154 4.54813 2.50305L3.38213 2.85505Z" fill="white" fill-opacity="0.6"/>
</svg>
