<svg width="20" height="20" viewBox="0 0 20 20" fill="none" xmlns="http://www.w3.org/2000/svg">
<path d="M10 19C14.9706 19 19 14.9706 19 10C19 5.02944 14.9706 1 10 1C5.02944 1 1 5.02944 1 10C1 14.9706 5.02944 19 10 19Z" stroke="#060606" stroke-width="1.5" stroke-linecap="round" stroke-linejoin="round"/>
<path d="M9.307 7.739L13 7L12.261 10.693C12.1836 11.0801 11.9935 11.4356 11.7144 11.7148C11.4354 11.994 11.08 12.1844 10.693 12.262L7 13L7.739 9.307C7.81654 8.92011 8.00678 8.5648 8.28579 8.28579C8.5648 8.00678 8.92011 7.81654 9.307 7.739Z" stroke="#060606" stroke-width="1.5" stroke-linecap="round" stroke-linejoin="round"/>
</svg>
