<svg width="18" height="11" viewBox="0 0 18 11" fill="none" xmlns="http://www.w3.org/2000/svg">
<path d="M1.41447 0.839158C1.31095 0.942417 1.22882 1.06508 1.17278 1.20013C1.11674 1.33518 1.08789 1.47996 1.08789 1.62618C1.08789 1.77239 1.11674 1.91717 1.17278 2.05222C1.22882 2.18727 1.31095 2.30994 1.41447 2.4132L8.80445 9.80318C8.88672 9.88562 8.98444 9.95103 9.09202 9.99565C9.1996 10.0403 9.31493 10.0632 9.4314 10.0632C9.54787 10.0632 9.66319 10.0403 9.77077 9.99565C9.87835 9.95103 9.97607 9.88562 10.0583 9.80318L17.4483 2.4132C17.8841 1.97745 17.8841 1.27491 17.4483 0.839158C17.0126 0.403407 16.31 0.403407 15.8743 0.839158L9.42695 7.2776L2.97961 0.830267C2.55276 0.403408 1.84133 0.403407 1.41447 0.839158Z" fill="#6A707C" stroke="#6A707C" stroke-width="0.2"/>
</svg>
