<svg width="12" height="8" viewBox="0 0 12 8" fill="none" xmlns="http://www.w3.org/2000/svg">
<path d="M0.744249 1.305C0.676345 1.37273 0.62247 1.4532 0.58571 1.54178C0.548951 1.63037 0.530029 1.72534 0.530029 1.82125C0.530029 1.91716 0.548951 2.01213 0.58571 2.10071C0.62247 2.1893 0.676345 2.26976 0.744249 2.3375L5.59175 7.185C5.64572 7.23908 5.70982 7.28198 5.78039 7.31125C5.85095 7.34052 5.9266 7.35559 6.003 7.35559C6.0794 7.35559 6.15505 7.34052 6.22561 7.31125C6.29618 7.28198 6.36028 7.23908 6.41425 7.185L11.2618 2.3375C11.5476 2.05166 11.5476 1.59083 11.2618 1.305C10.9759 1.01916 10.5151 1.01916 10.2292 1.305L6.00008 5.52833L1.77092 1.29917C1.49092 1.01917 1.02425 1.01916 0.744249 1.305Z" fill="#4EB3CA" stroke="#4EB3CA" stroke-width="0.2"/>
</svg>
