<svg width="28" height="27" viewBox="0 0 28 27" fill="none" xmlns="http://www.w3.org/2000/svg">
<path d="M6.64305 16.2308L5.71885 19.681L2.34091 19.7524C1.3314 17.88 0.758789 15.7377 0.758789 13.4612C0.758789 11.2598 1.29416 9.18385 2.24316 7.35593H2.24388L5.2512 7.90728L6.56858 10.8965C6.29286 11.7004 6.14257 12.5633 6.14257 13.4612C6.14268 14.4357 6.3192 15.3694 6.64305 16.2308Z" fill="#FBBB00"/>
<path d="M27.0779 10.9811C27.2303 11.7842 27.3098 12.6135 27.3098 13.4611C27.3098 14.4116 27.2099 15.3387 27.0195 16.233C26.3733 19.2761 24.6846 21.9334 22.3454 23.8138L22.3447 23.8131L18.5568 23.6198L18.0207 20.2732C19.5729 19.3629 20.7859 17.9383 21.4249 16.233H14.3262V10.9811H21.5285H27.0779Z" fill="#518EF8"/>
<path d="M22.3445 23.8132L22.3452 23.8139C20.0702 25.6425 17.1802 26.7367 14.0342 26.7367C8.97857 26.7367 4.58308 23.9109 2.34082 19.7525L6.64296 16.2308C7.76407 19.2229 10.6504 21.3528 14.0342 21.3528C15.4886 21.3528 16.8512 20.9597 18.0205 20.2733L22.3445 23.8132Z" fill="#28B446"/>
<path d="M22.508 3.24195L18.2073 6.76286C16.9972 6.00647 15.5668 5.56951 14.0343 5.56951C10.5739 5.56951 7.63358 7.79715 6.56864 10.8965L2.24389 7.3559H2.24316C4.4526 3.09607 8.90352 0.18568 14.0343 0.18568C17.2554 0.18568 20.2088 1.33308 22.508 3.24195Z" fill="#F14336"/>
</svg>
