<svg width="14" height="12" viewBox="0 0 14 12" fill="none" xmlns="http://www.w3.org/2000/svg">
<path d="M10.3177 0.0716248C9.10779 0.0716248 8.04841 0.591937 7.38806 1.47143C6.72771 0.591937 5.66833 0.0716248 4.45837 0.0716248C3.49523 0.0727103 2.57184 0.455801 1.89079 1.13685C1.20974 1.8179 0.826647 2.74129 0.825562 3.70444C0.825562 7.806 6.90701 11.1259 7.16599 11.263C7.23425 11.2998 7.31055 11.319 7.38806 11.319C7.46557 11.319 7.54187 11.2998 7.61013 11.263C7.86912 11.1259 13.9506 7.806 13.9506 3.70444C13.9495 2.74129 13.5664 1.8179 12.8853 1.13685C12.2043 0.455801 11.2809 0.0727103 10.3177 0.0716248ZM7.38806 10.3138C6.31814 9.69038 1.76306 6.85034 1.76306 3.70444C1.76399 2.98988 2.04826 2.30486 2.55353 1.79959C3.0588 1.29432 3.74382 1.01006 4.45837 1.00912C5.59802 1.00912 6.55486 1.61616 6.95447 2.59116C6.98978 2.67713 7.04986 2.75066 7.12707 2.80241C7.20427 2.85417 7.29512 2.8818 7.38806 2.8818C7.48101 2.8818 7.57185 2.85417 7.64906 2.80241C7.72626 2.75066 7.78634 2.67713 7.82165 2.59116C8.22126 1.6144 9.1781 1.00912 10.3177 1.00912C11.0323 1.01006 11.7173 1.29432 12.2226 1.79959C12.7279 2.30486 13.0121 2.98988 13.0131 3.70444C13.0131 6.84565 8.45681 9.68979 7.38806 10.3138Z" fill="#060606"/>
</svg>
