<svg width="14" height="12" viewBox="0 0 14 12" fill="none" xmlns="http://www.w3.org/2000/svg">
<path d="M13.9506 3.70311C13.9506 7.80467 7.86912 11.1246 7.61013 11.2617C7.54187 11.2984 7.46557 11.3176 7.38806 11.3176C7.31055 11.3176 7.23425 11.2984 7.16599 11.2617C6.90701 11.1246 0.825562 7.80467 0.825562 3.70311C0.826647 2.73996 1.20974 1.81657 1.89079 1.13552C2.57184 0.454473 3.49523 0.0713828 4.45837 0.0702972C5.66833 0.0702972 6.72771 0.59061 7.38806 1.4701C8.04841 0.59061 9.10779 0.0702972 10.3177 0.0702972C11.2809 0.0713828 12.2043 0.454473 12.8853 1.13552C13.5664 1.81657 13.9495 2.73996 13.9506 3.70311Z" fill="#F14336"/>
</svg>
