<svg width="16" height="15" viewBox="0 0 16 15" fill="none" xmlns="http://www.w3.org/2000/svg">
<path d="M8.0375 14.4101H8.027C6.08975 14.3741 0.5 9.32361 0.5 4.54011C0.5 2.24211 2.39375 0.224609 4.55225 0.224609C6.26975 0.224609 7.42475 1.40961 8.03675 2.27211C8.64725 1.41111 9.80225 0.224609 11.5205 0.224609C13.6805 0.224609 15.5735 2.24211 15.5735 4.54086C15.5735 9.32286 9.983 14.3734 8.04575 14.4086H8.0375V14.4101ZM4.553 1.35036C2.993 1.35036 1.62575 2.84136 1.62575 4.54161C1.62575 8.84661 6.90125 13.2386 8.03825 13.2851C9.17675 13.2386 14.4508 8.84736 14.4508 4.54161C14.4508 2.84136 13.0835 1.35036 11.5235 1.35036C9.6275 1.35036 8.5685 3.55236 8.5595 3.57411C8.387 3.99561 7.6925 3.99561 7.51925 3.57411C7.50875 3.55161 6.4505 1.35036 4.55375 1.35036H4.553Z" fill="#536471"/>
</svg>
