<svg width="15" height="13" viewBox="0 0 15 13" fill="none" xmlns="http://www.w3.org/2000/svg">
<path d="M7.05811 13.0005C6.84196 13.0002 6.63089 12.9349 6.45237 12.8131C3.80765 11.0177 2.66248 9.78674 2.03083 9.01712C0.684744 7.37658 0.040307 5.6923 0.0584791 3.86836C0.0796799 1.77823 1.75656 0.078125 3.79655 0.078125C5.27993 0.078125 6.30733 0.913705 6.90566 1.60963C6.92462 1.63145 6.94803 1.64895 6.97433 1.66094C7.00063 1.67294 7.0292 1.67914 7.05811 1.67914C7.08701 1.67914 7.11558 1.67294 7.14188 1.66094C7.16818 1.64895 7.1916 1.63145 7.21055 1.60963C7.80888 0.913032 8.83628 0.078125 10.3197 0.078125C12.3597 0.078125 14.0365 1.77823 14.0577 3.86869C14.0759 5.69297 13.4308 7.37725 12.0854 9.01746C11.4537 9.78708 10.3086 11.0181 7.66384 12.8134C7.48528 12.9351 7.27422 13.0003 7.05811 13.0005Z" fill="#F14336"/>
</svg>
