<svg width="18" height="18" viewBox="0 0 18 18" fill="none" xmlns="http://www.w3.org/2000/svg">
<path fill-rule="evenodd" clip-rule="evenodd" d="M5.56567 3.02548C3.71318 4.28659 2.5 6.41147 2.5 8.81654C2.5 12.6825 5.63401 15.8165 9.5 15.8165C11.9051 15.8165 14.0299 14.6034 15.2911 12.7509C10.1817 12.1923 6.12421 8.1348 5.56567 3.02548ZM16.5 10.8166C17.366 10.8166 18.1118 11.5798 17.7691 12.3751C16.3898 15.5759 13.2066 17.8165 9.5 17.8165C4.52944 17.8165 0.5 13.7871 0.5 8.81654C0.5 5.10997 2.74067 1.92673 5.9414 0.547458C6.73674 0.204724 7.5 0.950505 7.5 1.81655C7.5 6.78712 11.5294 10.8166 16.5 10.8166Z" fill="#6F767E"/>
</svg>
