<svg width="18" height="18" viewBox="0 0 18 18" fill="none" xmlns="http://www.w3.org/2000/svg">
<path fill-rule="evenodd" clip-rule="evenodd" d="M5.45679 3.02548C3.60429 4.28659 2.39111 6.41147 2.39111 8.81654C2.39111 12.6825 5.52512 15.8165 9.39111 15.8165C11.7962 15.8165 13.9211 14.6034 15.1822 12.7509C10.0728 12.1923 6.01532 8.1348 5.45679 3.02548ZM16.3911 10.8166C17.2572 10.8166 18.0029 11.5798 17.6602 12.3751C16.2809 15.5759 13.0977 17.8165 9.39111 17.8165C4.42055 17.8165 0.391113 13.7871 0.391113 8.81654C0.391113 5.10997 2.63179 1.92673 5.83251 0.547458C6.62785 0.204724 7.39111 0.950505 7.39111 1.81655C7.39111 6.78712 11.4206 10.8166 16.3911 10.8166Z" fill="white" fill-opacity="0.87"/>
</svg>
