<svg width="25" height="24" viewBox="0 0 25 24" fill="none" xmlns="http://www.w3.org/2000/svg">
<path d="M12.8911 15C14.548 15 15.8911 13.6569 15.8911 12C15.8911 10.3431 14.548 9 12.8911 9C11.2343 9 9.89111 10.3431 9.89111 12C9.89111 13.6569 11.2343 15 12.8911 15Z" stroke="white" stroke-opacity="0.6" stroke-width="1.5"/>
<path d="M14.6561 2.152C14.2891 2 13.8231 2 12.8911 2C11.9591 2 11.4931 2 11.1261 2.152C10.8833 2.25251 10.6626 2.3999 10.4768 2.58572C10.291 2.77155 10.1436 2.99218 10.0431 3.235C9.95108 3.458 9.91408 3.719 9.90008 4.098C9.89384 4.37199 9.81808 4.6399 9.67989 4.87657C9.5417 5.11324 9.34562 5.31091 9.11008 5.451C8.87097 5.58504 8.60172 5.6561 8.32761 5.6575C8.0535 5.6589 7.78353 5.59059 7.54308 5.459C7.20708 5.281 6.96408 5.183 6.72308 5.151C6.19739 5.08187 5.66578 5.22431 5.24508 5.547C4.93108 5.79 4.69708 6.193 4.23108 7C3.76508 7.807 3.53108 8.21 3.48008 8.605C3.44571 8.86545 3.463 9.13012 3.53094 9.38389C3.59889 9.63767 3.71617 9.87556 3.87608 10.084C4.02408 10.276 4.23108 10.437 4.55208 10.639C5.02508 10.936 5.32908 11.442 5.32908 12C5.32908 12.558 5.02508 13.064 4.55208 13.36C4.23108 13.563 4.02308 13.724 3.87608 13.916C3.71617 14.1244 3.59889 14.3623 3.53094 14.6161C3.463 14.8699 3.44571 15.1345 3.48008 15.395C3.53208 15.789 3.76508 16.193 4.23008 17C4.69708 17.807 4.93008 18.21 5.24508 18.453C5.45351 18.6129 5.69141 18.7302 5.94518 18.7981C6.19895 18.8661 6.46362 18.8834 6.72408 18.849C6.96408 18.817 7.20708 18.719 7.54308 18.541C7.78353 18.4094 8.0535 18.3411 8.32761 18.3425C8.60172 18.3439 8.87097 18.415 9.11008 18.549C9.59308 18.829 9.88008 19.344 9.90008 19.902C9.91408 20.282 9.95008 20.542 10.0431 20.765C10.1436 21.0078 10.291 21.2284 10.4768 21.4143C10.6626 21.6001 10.8833 21.7475 11.1261 21.848C11.4931 22 11.9591 22 12.8911 22C13.8231 22 14.2891 22 14.6561 21.848C14.8989 21.7475 15.1195 21.6001 15.3054 21.4143C15.4912 21.2284 15.6386 21.0078 15.7391 20.765C15.8311 20.542 15.8681 20.282 15.8821 19.902C15.9021 19.344 16.1891 18.828 16.6721 18.549C16.9112 18.415 17.1804 18.3439 17.4545 18.3425C17.7287 18.3411 17.9986 18.4094 18.2391 18.541C18.5751 18.719 18.8181 18.817 19.0581 18.849C19.3185 18.8834 19.5832 18.8661 19.837 18.7981C20.0907 18.7302 20.3286 18.6129 20.5371 18.453C20.8521 18.211 21.0851 17.807 21.5511 17C22.0171 16.193 22.2511 15.79 22.3021 15.395C22.3364 15.1345 22.3192 14.8699 22.2512 14.6161C22.1833 14.3623 22.066 14.1244 21.9061 13.916C21.7581 13.724 21.5511 13.563 21.2301 13.361C20.9958 13.2186 20.8016 13.019 20.6657 12.7809C20.5298 12.5428 20.4566 12.2741 20.4531 12C20.4531 11.442 20.7571 10.936 21.2301 10.64C21.5511 10.437 21.7591 10.276 21.9061 10.084C22.066 9.87556 22.1833 9.63767 22.2512 9.38389C22.3192 9.13012 22.3364 8.86545 22.3021 8.605C22.2501 8.211 22.0171 7.807 21.5521 7C21.0851 6.193 20.8521 5.79 20.5371 5.547C20.3286 5.38709 20.0907 5.26981 19.837 5.20187C19.5832 5.13392 19.3185 5.11664 19.0581 5.151C18.8181 5.183 18.5751 5.281 18.2381 5.459C17.9977 5.59042 17.728 5.65862 17.454 5.65722C17.1801 5.65582 16.9111 5.58486 16.6721 5.451C16.4365 5.31091 16.2405 5.11324 16.1023 4.87657C15.9641 4.6399 15.8883 4.37199 15.8821 4.098C15.8681 3.718 15.8321 3.458 15.7391 3.235C15.6386 2.99218 15.4912 2.77155 15.3054 2.58572C15.1195 2.3999 14.8989 2.25251 14.6561 2.152Z" stroke="white" stroke-opacity="0.6" stroke-width="1.5"/>
</svg>
