<svg width="25" height="24" viewBox="0 0 25 24" fill="none" xmlns="http://www.w3.org/2000/svg">
<path fill-rule="evenodd" clip-rule="evenodd" d="M12.5 18C15.8137 18 18.5 15.3137 18.5 12C18.5 8.68629 15.8137 6 12.5 6C9.18629 6 6.5 8.68629 6.5 12C6.5 15.3137 9.18629 18 12.5 18Z" fill="#060606"/>
<path fill-rule="evenodd" clip-rule="evenodd" d="M12.4952 1.5C13.0475 1.5 13.4952 1.94772 13.4952 2.5V3.5C13.4952 4.05228 13.0475 4.5 12.4952 4.5C11.9429 4.5 11.4952 4.05228 11.4952 3.5V2.5C11.4952 1.94772 11.9429 1.5 12.4952 1.5Z" fill="#060606"/>
<path fill-rule="evenodd" clip-rule="evenodd" d="M12.4952 19.5C13.0475 19.5 13.4952 19.9477 13.4952 20.5V21.4968C13.4952 22.0491 13.0475 22.4968 12.4952 22.4968C11.9429 22.4968 11.4952 22.0491 11.4952 21.4968V20.5C11.4952 19.9477 11.9429 19.5 12.4952 19.5Z" fill="#060606"/>
<path fill-rule="evenodd" clip-rule="evenodd" d="M1.99683 11.9984C1.99683 11.4461 2.44454 10.9984 2.99683 10.9984H3.99683C4.54911 10.9984 4.99683 11.4461 4.99683 11.9984C4.99683 12.5507 4.54911 12.9984 3.99683 12.9984H2.99683C2.44454 12.9984 1.99683 12.5507 1.99683 11.9984Z" fill="#060606"/>
<path fill-rule="evenodd" clip-rule="evenodd" d="M19.9968 11.9984C19.9968 11.4461 20.4445 10.9984 20.9968 10.9984H21.9936C22.5459 10.9984 22.9936 11.4461 22.9936 11.9984C22.9936 12.5507 22.5459 12.9984 21.9936 12.9984H20.9968C20.4445 12.9984 19.9968 12.5507 19.9968 11.9984Z" fill="#060606"/>
<path fill-rule="evenodd" clip-rule="evenodd" d="M5.07183 19.4219C4.68131 19.0313 4.68131 18.3982 5.07183 18.0077L5.77894 17.3005C6.16946 16.91 6.80263 16.91 7.19315 17.3005C7.58367 17.6911 7.58367 18.3242 7.19315 18.7148L6.48604 19.4219C6.09552 19.8124 5.46235 19.8124 5.07183 19.4219Z" fill="#060606"/>
<path fill-rule="evenodd" clip-rule="evenodd" d="M17.7998 6.69394C17.4092 6.30342 17.4092 5.67025 17.7998 5.27973L18.5046 4.5749C18.8951 4.18438 19.5283 4.18438 19.9188 4.5749C20.3093 4.96543 20.3093 5.59859 19.9188 5.98911L19.214 6.69394C18.8234 7.08447 18.1903 7.08447 17.7998 6.69394Z" fill="#060606"/>
<path fill-rule="evenodd" clip-rule="evenodd" d="M5.07183 4.5749C5.46235 4.18438 6.09552 4.18438 6.48604 4.5749L7.19315 5.28201C7.58367 5.67253 7.58367 6.3057 7.19315 6.69622C6.80263 7.08675 6.16946 7.08675 5.77894 6.69622L5.07183 5.98911C4.68131 5.59859 4.68131 4.96543 5.07183 4.5749Z" fill="#060606"/>
<path fill-rule="evenodd" clip-rule="evenodd" d="M17.7998 17.3028C18.1903 16.9123 18.8234 16.9123 19.214 17.3028L19.9188 18.0077C20.3093 18.3982 20.3093 19.0313 19.9188 19.4219C19.5283 19.8124 18.8951 19.8124 18.5046 19.4219L17.7998 18.717C17.4092 18.3265 17.4092 17.6933 17.7998 17.3028Z" fill="#060606"/>
</svg>
