<svg width="25" height="24" viewBox="0 0 25 24" fill="none" xmlns="http://www.w3.org/2000/svg">
<path fill-rule="evenodd" clip-rule="evenodd" d="M12.3911 18C15.7048 18 18.3911 15.3137 18.3911 12C18.3911 8.68629 15.7048 6 12.3911 6C9.0774 6 6.39111 8.68629 6.39111 12C6.39111 15.3137 9.0774 18 12.3911 18Z" fill="white" fill-opacity="0.6"/>
<path fill-rule="evenodd" clip-rule="evenodd" d="M12.3862 1.5C12.9385 1.5 13.3862 1.94772 13.3862 2.5V3.5C13.3862 4.05228 12.9385 4.5 12.3862 4.5C11.8339 4.5 11.3862 4.05228 11.3862 3.5V2.5C11.3862 1.94772 11.8339 1.5 12.3862 1.5Z" fill="white" fill-opacity="0.6"/>
<path fill-rule="evenodd" clip-rule="evenodd" d="M12.3862 19.5C12.9385 19.5 13.3862 19.9477 13.3862 20.5V21.4968C13.3862 22.0491 12.9385 22.4968 12.3862 22.4968C11.8339 22.4968 11.3862 22.0491 11.3862 21.4968V20.5C11.3862 19.9477 11.8339 19.5 12.3862 19.5Z" fill="white" fill-opacity="0.6"/>
<path fill-rule="evenodd" clip-rule="evenodd" d="M1.88782 11.9984C1.88782 11.4461 2.33553 10.9984 2.88782 10.9984H3.88782C4.4401 10.9984 4.88782 11.4461 4.88782 11.9984C4.88782 12.5507 4.4401 12.9984 3.88782 12.9984H2.88782C2.33553 12.9984 1.88782 12.5507 1.88782 11.9984Z" fill="white" fill-opacity="0.6"/>
<path fill-rule="evenodd" clip-rule="evenodd" d="M19.8878 11.9984C19.8878 11.4461 20.3355 10.9984 20.8878 10.9984H21.8846C22.4369 10.9984 22.8846 11.4461 22.8846 11.9984C22.8846 12.5507 22.4369 12.9984 21.8846 12.9984H20.8878C20.3355 12.9984 19.8878 12.5507 19.8878 11.9984Z" fill="white" fill-opacity="0.6"/>
<path fill-rule="evenodd" clip-rule="evenodd" d="M4.96282 19.4219C4.5723 19.0313 4.5723 18.3982 4.96282 18.0077L5.66993 17.3005C6.06045 16.91 6.69362 16.91 7.08414 17.3005C7.47467 17.6911 7.47467 18.3242 7.08414 18.7148L6.37703 19.4219C5.98651 19.8124 5.35335 19.8124 4.96282 19.4219Z" fill="white" fill-opacity="0.6"/>
<path fill-rule="evenodd" clip-rule="evenodd" d="M17.6907 6.69394C17.3002 6.30342 17.3002 5.67025 17.6907 5.27973L18.3956 4.5749C18.7861 4.18438 19.4193 4.18438 19.8098 4.5749C20.2003 4.96543 20.2003 5.59859 19.8098 5.98911L19.105 6.69394C18.7144 7.08447 18.0813 7.08447 17.6907 6.69394Z" fill="white" fill-opacity="0.6"/>
<path fill-rule="evenodd" clip-rule="evenodd" d="M4.96282 4.5749C5.35335 4.18438 5.98651 4.18438 6.37703 4.5749L7.08414 5.28201C7.47467 5.67253 7.47467 6.3057 7.08414 6.69622C6.69362 7.08675 6.06045 7.08675 5.66993 6.69622L4.96282 5.98911C4.5723 5.59859 4.5723 4.96543 4.96282 4.5749Z" fill="white" fill-opacity="0.6"/>
<path fill-rule="evenodd" clip-rule="evenodd" d="M17.6907 17.3028C18.0813 16.9123 18.7144 16.9123 19.105 17.3028L19.8098 18.0077C20.2003 18.3982 20.2003 19.0313 19.8098 19.4219C19.4193 19.8124 18.7861 19.8124 18.3956 19.4219L17.6907 18.717C17.3002 18.3265 17.3002 17.6933 17.6907 17.3028Z" fill="white" fill-opacity="0.6"/>
</svg>
