<svg width="13" height="13" viewBox="0 0 13 13" fill="none" xmlns="http://www.w3.org/2000/svg">
<path d="M11.8975 12.4365H12.8381L10.2131 5.87402H9.18501L6.56001 12.4365H7.50063L8.20063 10.6865H11.1975L11.8975 12.4365ZM8.55064 9.81152L9.69688 6.94152L10.8475 9.81152H8.55064ZM7.58813 2.81152V1.93652H4.52563V0.624023H3.65063V1.93652H0.588135V2.81152H5.28688C5.04448 3.81137 4.56589 4.73853 3.89126 5.51527C3.45149 4.96993 3.11224 4.3507 2.88938 3.68652H1.97063C2.24603 4.57754 2.69177 5.40663 3.28313 6.12777C2.62956 6.76174 1.86413 7.26906 1.02563 7.62402L1.35376 8.43777C2.29595 8.03996 3.15406 7.46689 3.88251 6.74902C4.59775 7.47671 5.4557 8.04868 6.40251 8.42902L6.71313 7.62402C5.86981 7.29804 5.10603 6.79532 4.47313 6.14965C5.31076 5.195 5.89984 4.0484 6.18813 2.81152H7.58813Z" fill="#536471"/>
</svg>
