<svg width="13" height="13" viewBox="0 0 13 13" fill="none" xmlns="http://www.w3.org/2000/svg">
<path d="M11.7886 12.4365H12.7292L10.1042 5.87402H9.07612L6.45112 12.4365H7.39175L8.09175 10.6865H11.0886L11.7886 12.4365ZM8.44175 9.81152L9.588 6.94152L10.7386 9.81152H8.44175ZM7.47925 2.81152V1.93652H4.41675V0.624023H3.54175V1.93652H0.479248V2.81152H5.178C4.93559 3.81137 4.45701 4.73853 3.78237 5.51527C3.3426 4.96993 3.00336 4.3507 2.7805 3.68652H1.86175C2.13714 4.57754 2.58289 5.40663 3.17425 6.12777C2.52067 6.76174 1.75524 7.26906 0.916748 7.62402L1.24487 8.43777C2.18706 8.03996 3.04517 7.46689 3.77362 6.74902C4.48886 7.47671 5.34682 8.04868 6.29362 8.42902L6.60425 7.62402C5.76092 7.29804 4.99715 6.79532 4.36425 6.14965C5.20187 5.195 5.79096 4.0484 6.07925 2.81152H7.47925Z" fill="#A0A0A0"/>
</svg>
