<svg width="21" height="20" viewBox="0 0 21 20" fill="none" xmlns="http://www.w3.org/2000/svg">
<path d="M20.8911 9.99C20.8911 4.475 16.4111 0 10.8911 0C5.37111 0 0.891113 4.475 0.891113 9.99C0.891113 13.0275 2.27111 15.765 4.43111 17.6025C4.45111 17.6225 4.47111 17.6225 4.47111 17.6425C4.65111 17.7825 4.83111 17.9225 5.03111 18.0625C5.13111 18.1225 5.21111 18.2013 5.31111 18.2812C6.9637 19.4017 8.9145 20.0004 10.9111 20C12.9077 20.0004 14.8585 19.4017 16.5111 18.2812C16.6111 18.2213 16.6911 18.1425 16.7911 18.0812C16.9711 17.9425 17.1711 17.8025 17.3511 17.6625C17.3711 17.6425 17.3911 17.6425 17.3911 17.6225C19.5111 15.7637 20.8911 13.0275 20.8911 9.99ZM10.8911 18.7412C9.01111 18.7412 7.29111 18.1413 5.87111 17.1425C5.89111 16.9825 5.93111 16.8237 5.97111 16.6637C6.09029 16.2301 6.26507 15.8138 6.49111 15.425C6.71111 15.045 6.97111 14.705 7.29111 14.405C7.59111 14.105 7.95111 13.8263 8.31111 13.6063C8.69111 13.3863 9.09111 13.2262 9.53111 13.1062C9.97454 12.9867 10.4319 12.9266 10.8911 12.9275C12.2544 12.9178 13.5676 13.4408 14.5511 14.385C15.0111 14.845 15.3711 15.385 15.6311 16.0037C15.7711 16.3638 15.8711 16.7437 15.9311 17.1425C14.4551 18.1802 12.6954 18.7384 10.8911 18.7412ZM7.83111 9.49125C7.65489 9.08778 7.56627 8.6515 7.57111 8.21125C7.57111 7.7725 7.65111 7.3325 7.83111 6.9325C8.01111 6.5325 8.25111 6.17375 8.55111 5.87375C8.85111 5.57375 9.21111 5.335 9.61111 5.155C10.0111 4.975 10.4511 4.895 10.8911 4.895C11.3511 4.895 11.7711 4.975 12.1711 5.155C12.5711 5.335 12.9311 5.575 13.2311 5.87375C13.5311 6.17375 13.7711 6.53375 13.9511 6.9325C14.1311 7.3325 14.2111 7.7725 14.2111 8.21125C14.2111 8.67125 14.1311 9.09125 13.9511 9.49C13.7774 9.88408 13.5334 10.2433 13.2311 10.55C12.9243 10.8519 12.5651 11.0954 12.1711 11.2688C11.3446 11.6084 10.4176 11.6084 9.59111 11.2688C9.19713 11.0954 8.83795 10.8519 8.53111 10.55C8.22838 10.2477 7.99023 9.88836 7.83111 9.49125ZM17.1111 16.1238C17.1111 16.0837 17.0911 16.0638 17.0911 16.0238C16.8944 15.398 16.6045 14.8055 16.2311 14.2663C15.8574 13.723 15.3981 13.2438 14.8711 12.8475C14.4686 12.5447 14.0324 12.2897 13.5711 12.0875C13.781 11.9491 13.9754 11.7886 14.1511 11.6087C14.4493 11.3144 14.7112 10.9854 14.9311 10.6287C15.3741 9.90101 15.6028 9.06311 15.5911 8.21125C15.5973 7.58064 15.4748 6.9554 15.2311 6.37375C14.9905 5.8133 14.6442 5.30445 14.2111 4.875C13.7787 4.45004 13.2697 4.11074 12.7111 3.875C12.1285 3.63174 11.5024 3.50968 10.8711 3.51625C10.2397 3.51007 9.61364 3.63256 9.03111 3.87625C8.46768 4.11148 7.9575 4.45798 7.53111 4.895C7.10616 5.32698 6.76686 5.83552 6.53111 6.39375C6.28742 6.9754 6.16493 7.60064 6.17111 8.23125C6.17111 8.67125 6.23111 9.09125 6.35111 9.49C6.47111 9.91 6.63111 10.29 6.85111 10.6488C7.05111 11.0087 7.33111 11.3288 7.63111 11.6288C7.81111 11.8088 8.01111 11.9675 8.23111 12.1075C7.76841 12.3151 7.33201 12.5769 6.93111 12.8875C6.41111 13.2875 5.95111 13.7662 5.57111 14.2863C5.19394 14.8233 4.90371 15.4164 4.71111 16.0438C4.69111 16.0837 4.69111 16.1238 4.69111 16.1437C3.11111 14.545 2.13111 12.3875 2.13111 9.99C2.13111 5.175 6.07111 1.23875 10.8911 1.23875C15.7111 1.23875 19.6511 5.175 19.6511 9.99C19.6485 12.2899 18.7353 14.4953 17.1111 16.1238Z" fill="white" fill-opacity="0.6"/>
</svg>
